HIERARCHY
ROOT Hips
{
 OFFSET 0.000000 0.000000 0.000000
 CHANNELS 6 Xposition Yposition Zposition Yrotation Xrotation Zrotation
 JOINT Chest
 {
  OFFSET 0.000000 9.585900 0.002600
  CHANNELS 3 Yrotation Xrotation Zrotation
  JOINT Chest2
  {
   OFFSET 0.000000 9.601200 -0.005300
   CHANNELS 3 Yrotation Xrotation Zrotation
   JOINT Chest3
   {
    OFFSET 0.000000 9.561800 0.000000
    CHANNELS 3 Yrotation Xrotation Zrotation
    JOINT Chest4
    {
     OFFSET 0.000000 9.552100 0.000000
     CHANNELS 3 Yrotation Xrotation Zrotation
     JOINT Neck
     {
      OFFSET 0.000000 14.453000 0.000000
      CHANNELS 3 Yrotation Xrotation Zrotation
      JOINT Head
      {
       OFFSET 0.000000 8.936500 -0.011300
       CHANNELS 3 Yrotation Xrotation Zrotation
       End Site
       {
        OFFSET 0.000000 17.073600 -0.006000
       }
      }
     }
     JOINT RightCollar
     {
      OFFSET -2.921100 9.558500 0.000000
      CHANNELS 3 Yrotation Xrotation Zrotation
      JOINT RightShoulder
      {
       OFFSET -13.519700 0.000000 0.000000
       CHANNELS 3 Yrotation Xrotation Zrotation
       JOINT RightElbow
       {
        OFFSET 0.000000 -29.696600 0.000000
        CHANNELS 3 Yrotation Xrotation Zrotation
        JOINT RightWrist
        {
         OFFSET 0.000000 -24.004700 0.000000
         CHANNELS 3 Yrotation Xrotation Zrotation
         End Site
         {
          OFFSET 0.000000 -17.728500 0.000000
         }
        }
       }
      }
     }
     JOINT LeftCollar
     {
      OFFSET 2.921100 9.558500 0.000000
      CHANNELS 3 Yrotation Xrotation Zrotation
      JOINT LeftShoulder
      {
       OFFSET 13.519700 0.000000 0.000000
       CHANNELS 3 Yrotation Xrotation Zrotation
       JOINT LeftElbow
       {
        OFFSET 0.000000 -29.696600 0.000000
        CHANNELS 3 Yrotation Xrotation Zrotation
        JOINT LeftWrist
        {
         OFFSET 0.000000 -24.004700 0.000000
         CHANNELS 3 Yrotation Xrotation Zrotation
         End Site
         {
          OFFSET 0.000000 -17.728500 0.000000
         }
        }
       }
      }
     }
    }
   }
  }
 }
 JOINT RightHip
 {
  OFFSET -7.771700 -0.012900 -0.001300
  CHANNELS 3 Yrotation Xrotation Zrotation
  JOINT RightKnee
  {
   OFFSET 0.000000 -40.869800 0.001200
   CHANNELS 3 Yrotation Xrotation Zrotation
   JOINT RightAnkle
   {
    OFFSET 0.000000 -39.717900 0.002100
    CHANNELS 3 Yrotation Xrotation Zrotation
    JOINT RightToe
    {
     OFFSET 0.000000 -4.965400 11.033500
     CHANNELS 3 Yrotation Xrotation Zrotation
     End Site
     {
      OFFSET 0.000000 -1.423100 5.872300
     }
    }
   }
  }
 }
 JOINT LeftHip
 {
  OFFSET 7.771700 -0.012900 -0.001300
  CHANNELS 3 Yrotation Xrotation Zrotation
  JOINT LeftKnee
  {
   OFFSET 0.000000 -40.869800 0.001200
   CHANNELS 3 Yrotation Xrotation Zrotation
   JOINT LeftAnkle
   {
    OFFSET 0.000000 -39.717900 0.002100
    CHANNELS 3 Yrotation Xrotation Zrotation
    JOINT LeftToe
    {
     OFFSET 0.000000 -4.965400 11.033500
     CHANNELS 3 Yrotation Xrotation Zrotation
     End Site
     {
      OFFSET 0.000000 -1.423100 5.872300
     }
    }
   }
  }
 }
}
MOTION
Frames: 9
Frame Time: 0.008333
26.273686 49.494042 61.479466 172.711862 -34.184550 -7.717027 7.435841 18.668861 7.161407 0.845379 2.479069 0.686139 1.398488 4.047572 1.141571 6.285819 16.070740 5.291317 -2.202361 16.041253 2.271117 -4.889467 -5.915115 4.978388 -1.859253 -1.462072 -3.410081 1.334387 -1.839419 1.009383 61.117778 -76.902604 -68.280885 1.061226 -5.660030 -4.472468 -8.771843 -1.307042 -0.530319 1.460610 -1.513595 -1.902057 -112.852627 -71.484184 116.727361 10.332557 -6.941389 -0.079904 2.712288 -46.571898 9.718391 -107.133200 80.560442 -94.610701 -0.658595 -11.024724 -1.311399 -0.262293 0.475686 -0.245461 -9.636835 -50.261793 17.843536 -154.217482 80.297984 -161.545188 0.857449 -17.495096 7.678536 -0.096232 -0.845960 -0.102900
26.274734 49.510874 61.468223 172.715718 -34.148609 -7.641353 7.403179 18.712851 7.114285 0.844191 2.480699 0.685527 1.396604 4.050191 1.140596 6.272761 16.133317 5.318951 -2.198036 15.947726 2.219498 -4.854454 -5.853350 5.017188 -1.828920 -1.532277 -3.448190 1.366239 -1.783263 0.998379 61.213321 -76.858933 -68.336936 1.094457 -5.722909 -4.496810 -8.787510 -1.343281 -0.592415 1.455942 -1.574231 -1.879006 -112.764811 -71.384653 116.715777 10.303141 -6.948823 -0.167965 2.513228 -46.509232 9.720610 -107.184551 80.644056 -94.742594 -0.615425 -11.248968 -1.501901 -0.283155 0.578900 -0.163104 -9.620477 -50.296439 17.771921 -154.200893 80.293004 -161.561310 0.870989 -17.487954 7.683992 -0.090984 -0.861926 -0.105382
26.271702 49.515061 61.461209 172.707486 -34.070139 -7.535612 7.362563 18.711313 7.034759 0.845527 2.469007 0.676297 1.394433 4.067693 1.149459 6.266565 16.161119 5.325422 -2.189230 15.932104 2.215965 -4.834532 -5.850161 5.025047 -1.814023 -1.559647 -3.467994 1.381286 -1.788261 0.977223 61.264707 -76.756478 -68.354718 1.118715 -5.760239 -4.513131 -8.788018 -1.384610 -0.631043 1.447275 -1.594239 -1.855827 -112.701848 -71.308305 116.703856 10.277110 -6.951456 -0.261186 2.335229 -46.473035 9.712692 -107.118704 80.743561 -94.761395 -0.633491 -11.534738 -1.714821 -0.264518 0.707119 -0.075662 -9.567641 -50.384068 17.660952 -154.210910 80.292978 -161.594879 0.875264 -17.498551 7.683715 -0.068962 -0.852990 -0.089258
26.274811 49.515181 61.450194 172.714525 -34.024752 -7.468164 7.326084 18.731485 6.989164 0.848238 2.431279 0.650258 1.393683 4.112468 1.176491 6.264614 16.171108 5.322592 -2.184052 15.940366 2.227462 -4.816617 -5.844999 5.028820 -1.810190 -1.559198 -3.477936 1.402816 -1.795129 0.961041 61.409598 -76.641179 -68.487345 1.158247 -5.769736 -4.530930 -8.793615 -1.396331 -0.652955 1.452051 -1.622423 -1.840064 -112.735352 -71.281720 116.755319 10.226499 -6.951278 -0.339762 2.118580 -46.392170 9.779739 -106.917685 80.849386 -94.649758 -0.703236 -11.796030 -1.917003 -0.212610 0.790420 -0.001794 -9.538388 -50.437399 17.574313 -154.227259 80.285988 -161.614162 0.884752 -17.524462 7.669806 -0.061578 -0.831939 -0.091729
26.279184 49.508183 61.439376 172.714271 -33.983577 -7.401487 7.301749 18.747303 6.946799 0.840583 2.439819 0.653946 1.403605 4.112452 1.172452 6.267117 16.180827 5.320445 -2.164028 16.002519 2.270304 -4.817668 -5.887400 5.014661 -1.815095 -1.552470 -3.485005 1.428149 -1.800132 0.953197 61.605507 -76.513547 -68.680553 1.202666 -5.757376 -4.550127 -8.805221 -1.432073 -0.670846 1.457898 -1.629001 -1.819234 -112.679427 -71.252180 116.710388 10.252032 -6.973147 -0.379785 1.908218 -46.311215 9.884545 -106.609407 80.942293 -94.442776 -0.826553 -12.001345 -2.099244 -0.130744 0.876292 0.083653 -9.497251 -50.491760 17.483983 -154.271219 80.273869 -161.650027 0.884744 -17.603687 7.648132 -0.054574 -0.761058 -0.077221
26.287889 49.495778 61.429228 172.705790 -33.953761 -7.358099 7.298272 18.764195 6.932242 0.845858 2.481372 0.678720 1.401011 4.080367 1.147442 6.260076 16.162723 5.302528 -2.141570 16.060247 2.300724 -4.820668 -5.885876 5.021169 -1.814582 -1.513616 -3.480452 1.447284 -1.798455 0.956707 61.841577 -76.391555 -68.918250 1.249132 -5.727597 -4.562176 -8.814688 -1.383548 -0.655355 1.464517 -1.684566 -1.822917 -112.658492 -71.261441 116.692967 10.243421 -7.002189 -0.411971 1.692305 -46.239080 10.049227 -106.270234 81.001469 -94.213085 -0.939040 -12.160913 -2.243253 -0.038685 0.837719 0.123114 -9.470099 -50.535234 17.426482 -154.348634 80.261751 -161.713759 0.910123 -17.652610 7.636700 -0.065355 -0.724690 -0.068499
26.294034 49.476662 61.422216 172.685363 -33.913261 -7.303373 7.303823 18.765460 6.909639 0.848414 2.496690 0.686080 1.403129 4.074964 1.141327 6.250651 16.146110 5.285908 -2.140037 16.066017 2.303863 -4.811794 -5.828153 5.039866 -1.817997 -1.508279 -3.485555 1.463315 -1.753641 0.975268 62.106401 -76.292410 -69.183882 1.291820 -5.687600 -4.566090 -8.828413 -1.333147 -0.632047 1.460826 -1.713259 -1.821480 -112.780946 -71.308792 116.822947 10.259751 -7.021010 -0.433264 1.526095 -46.211463 10.192747 -106.024930 81.024760 -94.069018 -1.034702 -12.256722 -2.352028 0.043444 0.752641 0.146320 -9.421649 -50.596840 17.348021 -154.576057 80.259234 -161.906568 0.902985 -17.702435 7.610954 -0.056274 -0.678193 -0.065720
26.292786 49.452739 61.417996 172.620641 -33.864380 -7.197493 7.331122 18.737590 6.843207 0.857346 2.520177 0.699715 1.406783 4.080850 1.142946 6.291479 16.208724 5.324192 -2.194609 15.986541 2.268488 -4.804473 -5.773613 5.054849 -1.855397 -1.538893 -3.522176 1.456574 -1.748103 0.986770 62.397031 -76.229229 -69.468688 1.286697 -5.683805 -4.582261 -8.889741 -1.389005 -0.637752 1.444221 -1.748196 -1.837452 -112.832841 -71.334487 116.897227 10.299106 -7.017099 -0.420855 1.482186 -46.238199 10.245467 -105.957809 81.020525 -94.079961 -1.075375 -12.276299 -2.415095 0.072378 0.695589 0.161545 -9.305149 -50.675900 17.232181 -154.835994 80.256704 -162.147511 0.881936 -17.793332 7.604374 -0.052752 -0.592522 -0.063215
26.291099 49.430737 61.414286 172.569954 -33.828357 -7.118669 7.355714 18.721538 6.798205 0.871943 2.547495 0.715189 1.410366 4.086736 1.145045 6.301642 16.217268 5.329737 -2.204593 15.991628 2.270719 -4.822923 -5.798493 5.050916 -1.879272 -1.552038 -3.542758 1.447044 -1.700893 1.003012 62.704828 -76.203958 -69.759078 1.302369 -5.670156 -4.600384 -8.936475 -1.391708 -0.628180 1.416600 -1.775128 -1.854193 -112.897614 -71.358860 116.994720 10.325163 -7.014409 -0.404643 1.489232 -46.291829 10.247717 -106.088753 81.004578 -94.250257 -1.050941 -12.252602 -2.425769 0.049892 0.558882 0.120123 -9.216044 -50.738472 17.140626 -155.120084 80.254490 -162.413249 0.874513 -17.835005 7.598194 -0.063801 -0.557581 -0.069905
